<?xml version="1.0" encoding="UTF-8" standalone="no"?>
<svg
   id="svg2"
   width="70.000053"
   height="63.999966"
   version="1.0"
   sodipodi:docname="computer.svg"
   inkscape:version="1.1.1 (3bf5ae0d25, 2021-09-20)"
   xmlns:inkscape="http://www.inkscape.org/namespaces/inkscape"
   xmlns:sodipodi="http://sodipodi.sourceforge.net/DTD/sodipodi-0.dtd"
   xmlns="http://www.w3.org/2000/svg"
   xmlns:svg="http://www.w3.org/2000/svg"
   xmlns:rdf="http://www.w3.org/1999/02/22-rdf-syntax-ns#"
   xmlns:cc="http://creativecommons.org/ns#"
   xmlns:dc="http://purl.org/dc/elements/1.1/">
  <sodipodi:namedview
     pagecolor="#ffffff"
     bordercolor="#666666"
     borderopacity="1"
     objecttolerance="10"
     gridtolerance="10"
     guidetolerance="10"
     inkscape:pageopacity="0"
     inkscape:pageshadow="2"
     inkscape:window-width="1920"
     inkscape:window-height="1003"
     id="namedview24"
     showgrid="false"
     inkscape:zoom="3.7431278"
     inkscape:cx="34.463157"
     inkscape:cy="12.422766"
     inkscape:window-x="0"
     inkscape:window-y="0"
     inkscape:window-maximized="1"
     inkscape:current-layer="svg2"
     inkscape:lockguides="true"
     inkscape:pagecheckerboard="0" />
  <metadata
     id="metadata7">
    <rdf:RDF>
      <cc:Work
         rdf:about="">
        <dc:format>image/svg+xml</dc:format>
        <dc:type
           rdf:resource="http://purl.org/dc/dcmitype/StillImage" />
      </cc:Work>
    </rdf:RDF>
  </metadata>
  <defs
     id="defs5">
    <style
       id="current-color-scheme"
       type="text/css">
      .ColorScheme-Text {
        color:#31363b;
      }
      .ColorScheme-Background{
        color:#E9E8E8;
      }
      .ColorScheme-ViewText {
        color:#000000;
      }
      .ColorScheme-ViewBackground{
        color:#ffffff;
      }
      .ColorScheme-ViewHover {
        color:#000000;
      }
      .ColorScheme-ViewFocus{
        color:#5a5a5a;
      }
      .ColorScheme-ButtonText {
        color:#000000;
      }
      .ColorScheme-ButtonBackground{
        color:#E9E8E8;
      }
      .ColorScheme-ButtonHover {
        color:#1489ff;
      }
      .ColorScheme-ButtonFocus{
        color:#2B74C7;
      }
</style>
  </defs>
  <g
     id="22-22-computer"
     transform="matrix(0.75000099,0,0,0.75000099,-273.42897,-345.59906)"
     style="fill:#00a489;fill-opacity:1">
    <rect
       style="opacity:0.01;fill:#00a489;fill-opacity:1;stroke:none"
       id="rect3074"
       width="29.333307"
       height="29.333271"
       x="385.90479"
       y="516.79803" />
    <path
       style="fill:#00a489;fill-opacity:1;stroke:none"
       class="ColorScheme-Text"
       d="m 17,45 v 14 l 6.999999,-3.7e-5 v 2 L 22,61 v 1 h 10 v -1 l -2.000002,-3.7e-5 v -2 L 37,59 V 45 Z m 1,1 H 36 V 57 H 18 Z m 6.999999,12.999963 h 3.999999 v 2 h -3.999999 z"
       transform="matrix(1.3333316,0,0,1.3333316,364.57148,460.79814)"
       id="rect7235" />
  </g>
  <g
     transform="matrix(0.75,0,0,0.75,-168,-765.27168)"
     id="22-22-computer-laptop"
     style="fill:#00a489;fill-opacity:1">
    <rect
       style="opacity:0.01;fill:#00a489;fill-opacity:1;stroke:none"
       id="rect7292"
       width="29.333338"
       height="29.333296"
       x="245.33333"
       y="1033.6956" />
    <path
       style="fill:#00a489;fill-opacity:1;stroke:none"
       class="ColorScheme-Text"
       d="m 18,13 v 14 h -1 a 1.9999999,1.9999999 0 0 0 2,2 h 16 a 1.9999999,1.9999999 0 0 0 2,-2 H 36 V 13 Z m 1,1 H 35 V 26 H 19 Z"
       transform="matrix(1.3333333,0,0,1.3333333,224,1020.3622)"
       id="rect7296" />
  </g>
  <g
     transform="matrix(1.09091,0,0,1.09091,-382.98739,-531.78014)"
     id="computer"
     style="fill:#00a489;fill-opacity:1">
    <rect
       y="516.79803"
       x="385.90479"
       height="29.333271"
       width="29.333307"
       id="rect3018"
       style="opacity:0.01;fill:#00a489;fill-opacity:1;stroke:none" />
    <path
       style="fill:#00a489;fill-opacity:1;stroke:none"
       d="M 40,36.011719 V 56 h 11 v 3 h -3 v 1 H 60 V 59 H 57 V 56 H 68 V 36.011719 Z m 1,1 h 26 l 2e-6,16.988249 h -26 z M 52,56 h 4 v 3 h -4 z"
       transform="matrix(0.9166659,0,0,0.9166659,351.07148,487.46472)"
       id="path3020"
       class="ColorScheme-Text" />
  </g>
  <g
     id="computer-laptop"
     transform="matrix(1.0909105,0,0,1.0909105,-229.6367,-1127.6693)"
     style="fill:#00a489;fill-opacity:1">
    <rect
       y="1033.6956"
       x="245.33333"
       height="29.333296"
       width="29.333338"
       id="rect3026"
       style="opacity:0.01;fill:#00a489;fill-opacity:1;stroke:none" />
    <path
       style="fill:#00a489;fill-opacity:1;stroke:none"
       class="ColorScheme-Text"
       d="m 40,4 -4e-6,18.999991 h -1 L 39,24 c 4e-6,1.104569 0.895431,2 2,2 h 26 c 1.104569,0 2,-0.895431 2,-2 v -1 l -1.000004,-9e-6 L 68,4 Z m 1,1 H 67 V 22 H 41 Z m -1,19 h 28 c 0,0.552285 -0.447715,1 -1,1 H 41 c -0.552285,0 -1,-0.447715 -1,-1 z"
       transform="matrix(0.91666548,0,0,0.91666548,210.50004,1033.6955)"
       id="path3028" />
  </g>
  <g
     id="16-16-computer"
     transform="matrix(0.54506989,0,0,0.54506989,-210.34508,-233.67977)"
     style="fill:#00a489;fill-opacity:1">
    <rect
       style="opacity:0.01;fill:#00a489;fill-opacity:1;stroke:none"
       id="rect3034"
       width="29.333307"
       height="29.333271"
       x="385.90479"
       y="516.79803" />
    <path
       id="path3036"
       style="fill:#00a489;fill-opacity:1;stroke:none"
       d="m 393.2433,540.64039 h 14.67701 v 1.84243 H 393.2433 Z m 4.66149,-1.82681 h 5.33332 v 1.82679 h -5.33332 z m -10.16666,-18.33855 v 18.33853 h 25.66664 v -18.33853 z m 1.83591,1.82689 22.01553,10e-6 v 12.84238 h -22.01553 z"
       class="ColorScheme-Text" />
  </g>
  <g
     transform="matrix(0.5454565,0,0,0.5454565,-133.81866,-547.83604)"
     id="16-16-computer-laptop"
     style="fill:#00a489;fill-opacity:1">
    <rect
       style="opacity:0.01;fill:#00a489;fill-opacity:1;stroke:none"
       id="rect3042"
       width="29.333338"
       height="29.333296"
       x="245.33333"
       y="1033.6956" />
    <path
       class="ColorScheme-Text"
       id="path3044"
       d="m 250.98282,1041.0288 v 12.8334 h -3.73283 c 0,2 2.41668,3.6666 2.41668,3.6666 h 20.66666 c 0,0 2.41662,-1.6666 2.41662,-3.6666 h -3.43386 v -12.8334 z m 1.83333,1.8334 h 14.66661 v 9.1666 h -14.66661 z"
       style="fill:#00a489;fill-opacity:1;stroke:none" />
  </g>
</svg>
