<?xml version="1.0" encoding="UTF-8" standalone="no"?>
<svg
   viewBox="0 0 32 32"
   id="svg2"
   version="1.1"
   sodipodi:docname="start.svg"
   inkscape:version="1.1.1 (3bf5ae0d25, 2021-09-20)"
   width="32"
   height="32"
   xmlns:inkscape="http://www.inkscape.org/namespaces/inkscape"
   xmlns:sodipodi="http://sodipodi.sourceforge.net/DTD/sodipodi-0.dtd"
   xmlns:xlink="http://www.w3.org/1999/xlink"
   xmlns="http://www.w3.org/2000/svg"
   xmlns:svg="http://www.w3.org/2000/svg"
   xmlns:rdf="http://www.w3.org/1999/02/22-rdf-syntax-ns#"
   xmlns:cc="http://creativecommons.org/ns#"
   xmlns:dc="http://purl.org/dc/elements/1.1/">
  <sodipodi:namedview
     pagecolor="#ffffff"
     bordercolor="#000000"
     borderopacity="1"
     objecttolerance="10"
     gridtolerance="10"
     guidetolerance="10"
     inkscape:pageopacity="0"
     inkscape:pageshadow="2"
     inkscape:window-width="1920"
     inkscape:window-height="1009"
     id="namedview17"
     showgrid="true"
     inkscape:zoom="8"
     inkscape:cx="12.75"
     inkscape:cy="23.9375"
     inkscape:window-x="0"
     inkscape:window-y="0"
     inkscape:window-maximized="1"
     inkscape:current-layer="svg2"
     inkscape:lockguides="false"
     inkscape:document-rotation="0"
     inkscape:showpageshadow="false"
     inkscape:pagecheckerboard="0">
    <inkscape:grid
       type="xygrid"
       id="grid842"
       originx="-22"
       originy="0" />
  </sodipodi:namedview>
  <metadata
     id="metadata21">
    <rdf:RDF>
      <cc:Work
         rdf:about="">
        <dc:format>image/svg+xml</dc:format>
        <dc:type
           rdf:resource="http://purl.org/dc/dcmitype/StillImage" />
      </cc:Work>
    </rdf:RDF>
  </metadata>
  <defs
     id="defs3051">
    <style
       type="text/css"
       id="current-color-scheme">
      .ColorScheme-Text {
        color:#31363b;
      }
      </style>
    <linearGradient
       inkscape:collect="always"
       xlink:href="#linearGradient818"
       id="linearGradient820"
       x1="33.15625"
       y1="101"
       x2="141.84375"
       y2="94"
       gradientUnits="userSpaceOnUse"
       gradientTransform="matrix(0.17181208,0,0,0.17181208,-1.18121,-1.181208)" />
    <linearGradient
       inkscape:collect="always"
       id="linearGradient818">
      <stop
         style="stop-color:#00778d;stop-opacity:1"
         offset="0"
         id="stop814" />
      <stop
         style="stop-color:#00a489;stop-opacity:1"
         offset="1"
         id="stop816" />
    </linearGradient>
    <linearGradient
       inkscape:collect="always"
       xlink:href="#linearGradient818"
       id="linearGradient1408"
       gradientUnits="userSpaceOnUse"
       gradientTransform="matrix(0.12885906,0,0,0.12885906,-1.885907,-1.885906)"
       x1="33.15625"
       y1="101"
       x2="141.84375"
       y2="94" />
    <linearGradient
       inkscape:collect="always"
       xlink:href="#linearGradient818"
       id="linearGradient1567"
       gradientUnits="userSpaceOnUse"
       gradientTransform="matrix(0.10022379,0,0,0.10022379,-40.022372,13.977629)"
       x1="33.15625"
       y1="101"
       x2="141.84375"
       y2="94" />
  </defs>
  <g
     id="start-here-kde">
    <rect
       style="fill:none;fill-rule:evenodd;stroke:none;stroke-width:1px;stroke-linecap:butt;stroke-linejoin:miter;stroke-opacity:1"
       id="rect3343"
       width="32"
       height="32"
       x="0"
       y="0" />
    <path
       style="color:#4d4d4d;font-size:20.4884px;font-family:TrebuchetMS-Bold;fill:url(#linearGradient820);fill-opacity:1;fill-rule:evenodd;stroke:none;stroke-width:0.171812;stroke-miterlimit:4"
       d="M 16,4 C 9.373091,4 4,9.372479 4,16 4,22.62752 9.373092,28 16,28 22.626909,28 27.999998,22.62752 28,16 28,9.37248 22.626909,4 16,4 Z m 0.05746,1.661878 c 5.70992,0 10.342541,4.628814 10.342541,10.338122 0,5.709922 -4.633232,10.338122 -10.342541,10.338122 -3.083137,0 -5.849721,-1.351256 -7.743647,-3.491713 0.778737,-0.604392 2.081612,-0.456941 3.686188,-0.274033 0.768949,0.08748 1.645522,0.187548 2.550276,0.207734 2.527682,0.01469 5.247371,-0.446643 6.925968,-1.18011 1.085215,-0.47593 1.780033,-0.789351 2.214364,-1.184531 0.156605,-0.128464 0.238844,-0.343073 0.322652,-0.565744 l 0.05746,-0.150278 c 0.07035,-0.179849 0.171307,-0.566852 0.216574,-0.777899 0.02019,-0.09237 0.0301,-0.191708 -0.03536,-0.243096 l -0.234254,0.0442 c -0.736527,0.44167 -2.576688,1.282869 -4.300552,1.317127 -2.136172,0.04466 -6.441595,-2.150474 -6.890608,-2.382321 l -0.0442,-0.05304 c -0.107665,-0.25693 -0.751981,-1.786516 -0.888397,-2.108288 3.099041,2.040743 5.6684,3.170289 7.63757,3.345855 2.189394,0.194533 3.897213,-1.000803 4.627622,-1.511601 0.142535,-0.09727 0.251476,-0.173538 0.296134,-0.190055 l 0.04862,-0.07956 c -0.121124,-0.769562 -1.269817,-4.49349 -2.134808,-5.387845 -0.2398,-0.245305 -0.430451,-0.484037 -0.817679,-0.711602 C 18.420532,9.136521 10.986752,8.03751 10.638676,7.986736 l -0.05746,0.01768 -0.0221,0.04862 c 0,0 -0.02788,1.543632 -0.03094,1.714917 C 10.273083,9.683533 9.482101,9.42457 8.34917,9.113809 9.827396,7.284725 12.092789,5.661876 16.057458,5.661875 Z m 2.731491,5.471824 c 0.05276,-7.91e-4 0.10601,-0.0018 0.159117,0 1.753839,0.06301 3.13177,1.540202 3.071823,3.292817 -0.0312,0.847863 -0.38866,1.631244 -1.007735,2.209945 -0.620911,0.581759 -1.427908,0.884987 -2.280662,0.857459 -1.750783,-0.06546 -3.128716,-1.542648 -3.071825,-3.292818 0.02998,-0.849086 0.38941,-1.6375 1.012155,-2.214365 0.581529,-0.545398 1.325812,-0.841163 2.117127,-0.853038 z m -0.08398,0.937016 c -0.510786,0.03105 -0.992803,0.238453 -1.370166,0.592265 -0.430047,0.403744 -0.6838,0.950384 -0.702763,1.542542 -0.04037,1.223467 0.916984,2.253074 2.139227,2.298343 0.593993,0.01835 1.157442,-0.189746 1.591161,-0.592266 0.432495,-0.405579 0.684411,-0.95725 0.702763,-1.546961 0.04098,-1.225303 -0.920791,-2.251101 -2.143646,-2.293923 -0.07402,-0.0028 -0.143606,-0.0044 -0.216576,0 z m 0.583425,1.109393 c 0.54322,0 0.981217,0.295193 0.981216,0.658563 0,0.361535 -0.437996,0.658563 -0.981216,0.658564 -0.545055,0 -0.985634,-0.297642 -0.985634,-0.658564 0,-0.363369 0.440579,-0.658563 0.985634,-0.658563 z"
       id="path2445"
       class="ColorScheme-Text"
       inkscape:connector-curvature="0" />
  </g>
  <g
     id="16-16-start-here-kde">
    <path
       style="fill:none"
       d="m -38,16 v 16 h 16 V 16 Z"
       id="path17" />
    <path
       style="color:#4d4d4d;font-size:20.4884px;font-family:TrebuchetMS-Bold;fill:url(#linearGradient1567);fill-opacity:1;fill-rule:evenodd;stroke:none;stroke-width:0.100221;stroke-miterlimit:4"
       d="m -30,17 c -3.865697,0 -7,3.133947 -7,7 0,3.866047 3.134303,7 7,7 3.865699,0 6.999999,-3.133953 7,-7 0,-3.866053 -3.134301,-7 -7,-7 z m 0.03352,0.969429 c 3.330779,0 6.033154,2.700142 6.033154,6.030571 0,3.330795 -2.702724,6.030571 -6.033154,6.030571 -1.798497,0 -3.412337,-0.788227 -4.517128,-2.036838 0.454263,-0.352548 1.214275,-0.266548 2.150276,-0.159849 0.448555,0.05104 0.959889,0.109412 1.487662,0.121187 1.474481,0.0078 3.060959,-0.26054 4.040137,-0.688398 0.633056,-0.277627 1.038359,-0.460456 1.291725,-0.690985 0.09138,-0.07493 0.139329,-0.20012 0.1882,-0.330017 l 0.03351,-0.08765 c 0.0411,-0.104913 0.09993,-0.330665 0.126344,-0.453776 0.01178,-0.05388 0.01751,-0.11183 -0.02057,-0.141806 l -0.136659,0.02579 c -0.429671,0.257632 -1.503105,0.748328 -2.508689,0.768319 -1.246106,0.02605 -3.757604,-1.254446 -4.019528,-1.389691 l -0.02579,-0.03094 c -0.06281,-0.149877 -0.438655,-1.042135 -0.518231,-1.229835 1.807773,1.190433 3.306565,1.849336 4.455246,1.95175 1.277149,0.113476 2.273375,-0.583802 2.699455,-0.881768 0.08319,-0.05675 0.14669,-0.10123 0.172742,-0.110866 l 0.02841,-0.04641 c -0.07071,-0.448909 -0.740781,-2.6212 -1.245362,-3.142906 -0.139887,-0.143095 -0.251087,-0.282356 -0.476979,-0.415102 -1.826324,-1.064468 -6.162696,-1.705558 -6.36574,-1.735175 l -0.03353,0.01031 -0.01289,0.02835 c 0,0 -0.01627,0.900452 -0.01805,1.000368 -0.148798,-0.04923 -0.610204,-0.200295 -1.27108,-0.381573 0.862298,-1.066965 2.183778,-2.013627 4.4965,-2.013627 z m 1.593367,3.191896 c 0.03077,-4.61e-4 0.06183,-0.001 0.09282,0 1.023076,0.03676 1.826858,0.898452 1.791893,1.920812 -0.0182,0.494586 -0.226712,0.951558 -0.587843,1.289134 -0.3622,0.33936 -0.832944,0.516242 -1.330385,0.500184 -1.021291,-0.03818 -1.825085,-0.899878 -1.7919,-1.92081 0.01749,-0.4953 0.227157,-0.955209 0.590424,-1.291714 0.339226,-0.318148 0.773391,-0.490677 1.234994,-0.497606 z m -0.04899,0.546594 c -0.297959,0.01811 -0.579136,0.139098 -0.799265,0.345487 -0.25086,0.235519 -0.398883,0.554391 -0.409945,0.899817 -0.02355,0.713689 0.534907,1.314294 1.247882,1.3407 0.346496,0.0107 0.675172,-0.110684 0.928175,-0.345489 0.252289,-0.236588 0.399241,-0.558395 0.409947,-0.902393 0.0239,-0.714761 -0.537123,-1.313142 -1.250459,-1.338122 -0.04319,-0.0017 -0.08378,-0.0025 -0.126335,0 z m 0.340329,0.647145 c 0.31688,0 0.572378,0.172197 0.572377,0.384162 0,0.210895 -0.255497,0.384162 -0.572377,0.384163 -0.317948,0 -0.574951,-0.173624 -0.574951,-0.384163 0,-0.211964 0.257003,-0.384162 0.574951,-0.384162 z"
       id="path2445-5"
       class="ColorScheme-Text"
       inkscape:connector-curvature="0" />
  </g>
  <g
     id="22-22-start-here-kde"
     transform="translate(-22.000001,10)">
    <path
       style="color:#4d4d4d;font-size:20.4884px;font-family:TrebuchetMS-Bold;fill:url(#linearGradient1408);fill-opacity:1;fill-rule:evenodd;stroke:none;stroke-width:0.128859;stroke-miterlimit:4"
       d="m 11,2 c -4.970182,0 -9,4.029359 -9,9 0,4.97064 4.029819,9 9,9 4.970182,0 8.999999,-4.02936 9,-9 0,-4.97064 -4.029818,-9 -9,-9 z m 0.04309,1.246408 c 4.282439,0 7.756905,3.47161 7.756905,7.753592 0,4.282441 -3.474924,7.753592 -7.756905,7.753592 -2.312353,0 -4.387292,-1.013443 -5.807736,-2.618785 0.584053,-0.453294 1.561209,-0.342706 2.764641,-0.205525 0.576712,0.06561 1.234141,0.140661 1.912707,0.155801 1.895762,0.01102 3.935528,-0.334983 5.194476,-0.885083 0.813912,-0.356948 1.335025,-0.592013 1.660773,-0.888398 0.117454,-0.09635 0.179133,-0.257305 0.241989,-0.424308 l 0.04309,-0.112709 c 0.05276,-0.134887 0.12848,-0.425139 0.16243,-0.583424 0.01514,-0.06928 0.02257,-0.143781 -0.02652,-0.182322 l -0.175691,0.03315 c -0.552395,0.331253 -1.932516,0.962152 -3.225414,0.987845 -1.602129,0.0335 -4.831196,-1.612855 -5.167956,-1.78674 l -0.03315,-0.03978 c -0.08075,-0.192698 -0.563986,-1.339887 -0.666298,-1.581216 2.324281,1.530557 4.2513,2.377716 5.728177,2.509391 1.642046,0.1459 2.92291,-0.750602 3.470717,-1.133701 0.106901,-0.07295 0.188607,-0.130153 0.222101,-0.142541 l 0.03647,-0.05967 C 17.287056,11.218405 16.425535,8.425459 15.776792,7.754693 15.596941,7.570714 15.453954,7.391665 15.163533,7.220992 12.815394,5.85239 7.240059,5.028133 6.979002,4.990052 l -0.04309,0.01326 -0.01658,0.03647 c 0,0 -0.02091,1.157724 -0.0232,1.286188 C 6.704811,6.26266 6.111575,6.068432 5.261876,5.835362 6.370546,4.463549 8.069591,3.246412 11.043093,3.246411 Z m 2.048617,4.103869 c 0.03957,-5.94e-4 0.07951,-0.0013 0.119339,0 1.315378,0.04726 2.348827,1.155151 2.303866,2.469612 -0.0234,0.635897 -0.291494,1.223433 -0.755801,1.657459 -0.465683,0.436319 -1.07093,0.66374 -1.710496,0.643094 -1.313087,-0.04909 -2.346537,-1.156986 -2.303869,-2.469613 0.02248,-0.636815 0.292058,-1.228125 0.759117,-1.660774 0.436146,-0.409049 0.994358,-0.630872 1.587844,-0.639778 z m -0.06298,0.702761 c -0.38309,0.02329 -0.744603,0.17884 -1.027625,0.444199 -0.322535,0.302808 -0.51285,0.712788 -0.527072,1.156907 -0.03028,0.9176 0.687738,1.689805 1.60442,1.723757 0.445495,0.01376 0.868081,-0.14231 1.193371,-0.4442 0.324371,-0.304184 0.513308,-0.717937 0.527072,-1.16022 0.03074,-0.918978 -0.690593,-1.688326 -1.607734,-1.720443 -0.05551,-0.0021 -0.107705,-0.0033 -0.162432,0 z m 0.437568,0.832045 c 0.407416,0 0.735913,0.221395 0.735912,0.493922 0,0.271152 -0.328496,0.493923 -0.735912,0.493923 -0.408791,0 -0.739225,-0.223231 -0.739225,-0.493923 0,-0.272526 0.330434,-0.493922 0.739225,-0.493922 z"
       id="path2445-7"
       class="ColorScheme-Text"
       inkscape:connector-curvature="0" />
    <rect
       style="fill:none;fill-opacity:1;stroke:none"
       id="rect4150"
       width="22"
       height="22"
       x="0"
       y="0" />
  </g>
</svg>
