<?xml version="1.0" encoding="UTF-8" standalone="no"?>
<svg
   xmlns:osb="http://www.openswatchbook.org/uri/2009/osb"
   xmlns:dc="http://purl.org/dc/elements/1.1/"
   xmlns:cc="http://creativecommons.org/ns#"
   xmlns:rdf="http://www.w3.org/1999/02/22-rdf-syntax-ns#"
   xmlns:svg="http://www.w3.org/2000/svg"
   xmlns="http://www.w3.org/2000/svg"
   xmlns:sodipodi="http://sodipodi.sourceforge.net/DTD/sodipodi-0.dtd"
   xmlns:inkscape="http://www.inkscape.org/namespaces/inkscape"
   inkscape:version="1.0 (4035a4fb49, 2020-05-01)"
   sodipodi:docname="window.svg"
   viewBox="0 0 32 32"
   version="1.1"
   height="32"
   width="32"
   id="svg">
  <metadata
     id="metadata60">
    <rdf:RDF>
      <cc:Work
         rdf:about="">
        <dc:format>image/svg+xml</dc:format>
        <dc:type
           rdf:resource="http://purl.org/dc/dcmitype/StillImage" />
      </cc:Work>
    </rdf:RDF>
  </metadata>
  <sodipodi:namedview
     inkscape:document-rotation="0"
     inkscape:lockguides="true"
     inkscape:current-layer="svg"
     inkscape:window-maximized="1"
     inkscape:window-y="0"
     inkscape:window-x="0"
     inkscape:cy="14.461897"
     inkscape:cx="70.910746"
     inkscape:zoom="5.656854"
     showgrid="false"
     id="namedview58"
     inkscape:window-height="1015"
     inkscape:window-width="1920"
     inkscape:pageshadow="2"
     inkscape:pageopacity="0"
     guidetolerance="10"
     gridtolerance="10"
     objecttolerance="10"
     borderopacity="1"
     bordercolor="#666666"
     pagecolor="#ffffff" />
  <defs
     id="defs4">
    <linearGradient
       osb:paint="solid"
       id="linearGradient5606">
      <stop
         style="stop-color:#000000"
         offset="0"
         id="stop5608" />
    </linearGradient>
  </defs>
  <g
     transform="translate(124,-20)"
     id="window-pin">
    <rect
       id="rect6"
       y="44"
       x="-46"
       height="8"
       width="8"
       style="fill:#cfd8dc;fill-opacity:0" />
    <path
       id="path8"
       d="m -40.9285,45.110908 c -0.267607,0.267607 -0.321998,0.745489 -0.01071,1.267575 l -1.460938,0.977545 c -0.181639,-0.0733 -0.37661,-0.127936 -0.569336,-0.128912 -0.250509,-0.0016 -0.494141,0.07519 -0.708982,0.290042 l 1.03125,1.03125 -1.375,1.375 -0.343784,0.6875 0.6875,-0.34375 1.375,-1.375 1.03125,1.03125 c 0.380517,-0.380517 0.331629,-0.862043 0.16113,-1.278325 l 0.977545,-1.46093 c 0.522086,0.311253 0.999968,0.256862 1.267575,-0.01073 z"
       style="fill:#cfd8dc;stroke-width:0.6875" />
  </g>
  <g
     transform="translate(136,-20)"
     id="window-unpin">
    <path
       id="path11"
       d="m -61.0735,45.068709 c -0.267611,0.267611 -0.321994,0.745485 -0.01066,1.267576 l -1.460937,0.97754 c -0.181641,-0.07327 -0.376611,-0.127935 -0.569338,-0.128906 -0.250509,-0.0012 -0.494138,0.07523 -0.70898,0.29004 l 1.03125,1.03125 -1.375,1.375 -0.343835,0.6875 0.6875,-0.34375 1.375,-1.375 1.03125,1.03125 c 0.38052,-0.38052 0.331633,-0.862045 0.161134,-1.278322 l 0.97754,-1.460937 c 0.522091,0.311253 0.999965,0.25687 1.267576,-0.0108 z"
       style="fill:#008864;fill-opacity:1;stroke-width:0.6875" />
    <rect
       id="rect13"
       y="44"
       x="-66"
       height="8"
       width="8"
       style="fill:#cfd8dc;fill-opacity:0" />
  </g>
  <rect
     id="rect16"
     y="13.77"
     x="-38.33"
     height="22"
     width="22"
     style="fill:#cfd8dc;fill-opacity:0" />
  <g
     transform="translate(32,10)"
     id="22-22-window-close">
    <rect
       id="rect18"
       y="0"
       x="0"
       height="22"
       width="22"
       style="opacity:0.00100002" />
    <g
       id="g24"
       transform="matrix(1.7493122,0,0,1.7499488,-107.95048,-909.47286)"
       style="fill:#ffffff">
      <g
         id="g22"
         transform="translate(19,-242)"
         style="fill:#ffffff">
        <path
           id="path20"
           d="m 45.571203,764.57141 h 0.857142 c 0.0089,-1.1e-4 0.01782,-4e-4 0.02679,0 0.21853,0.01 0.437032,0.11021 0.589286,0.26785 l 1.955357,1.95536 1.982143,-1.95536 c 0.227678,-0.19757 0.382861,-0.26185 0.589285,-0.26785 h 0.857143 v 0.85714 c 0,0.24555 -0.02943,0.47199 -0.214285,0.64286 l -1.955357,1.95535 1.928571,1.92858 c 0.161304,0.16128 0.241064,0.38867 0.241071,0.61607 v 0.85714 h -0.857143 c -0.2274,-10e-6 -0.454788,-0.0798 -0.616071,-0.24107 l -1.955357,-1.95536 -1.955357,1.95536 c -0.161288,0.1613 -0.388684,0.24107 -0.616076,0.24107 h -0.857142 v -0.85714 c -3e-6,-0.22739 0.07977,-0.45479 0.241071,-0.61607 l 1.955357,-1.92858 -1.955357,-1.95535 c -0.180636,-0.16683 -0.259851,-0.40222 -0.241071,-0.64286 z"
           style="fill:#cfd8dc" />
      </g>
    </g>
  </g>
  <g
     transform="translate(54,32)"
     id="16-16-window-close">
    <rect
       id="rect27"
       y="-16"
       x="0"
       height="16"
       width="16"
       style="opacity:0.00100002" />
    <g
       id="g33"
       transform="matrix(1.2495087,0,0,1.2499635,-76.964626,-665.48065)"
       style="fill:#ffffff">
      <g
         id="g31"
         transform="translate(19,-242)"
         style="fill:#ffffff">
        <path
           id="path29"
           d="m 45.799685,764.79997 h 0.8 c 0.0083,-10e-5 0.01663,-3.7e-4 0.025,0 0.203961,0.009 0.407896,0.10286 0.55,0.25 l 1.825,1.825 1.85,-1.825 c 0.2125,-0.1844 0.357337,-0.2444 0.55,-0.25 h 0.8 v 0.8 c 0,0.22918 -0.02747,0.44052 -0.2,0.6 l -1.825,1.825 1.8,1.8 c 0.15055,0.15054 0.224993,0.36276 0.225,0.575 v 0.8 h -0.8 c -0.212241,-10e-6 -0.424469,-0.0745 -0.575,-0.225 l -1.825,-1.825 -1.825,1.825 c -0.150531,0.15055 -0.362768,0.225 -0.575,0.225 h -0.8 v -0.8 c -3e-6,-0.21223 0.07445,-0.42446 0.225,-0.575 l 1.825,-1.8 -1.825,-1.825 c -0.168594,-0.1557 -0.242528,-0.3754 -0.225,-0.6 z"
           style="fill:#cfd8dc" />
      </g>
    </g>
  </g>
  <g
     id="window-close">
    <rect
       id="rect36"
       style="opacity:0.00100002"
       y="0"
       x="0"
       height="32"
       width="32" />
    <rect
       id="rect40"
       style="fill:#008864;fill-opacity:1"
       transform="matrix(0,-1,-1,0,0,0)"
       ry="14"
       rx="14"
       y="-30"
       x="-30"
       height="28"
       width="28" />
    <g
       id="g46"
       transform="matrix(1.7493122,0,0,1.7499488,-102.95048,-903.47286)"
       style="opacity:0.2">
      <g
         id="g44"
         transform="translate(19,-242)" />
    </g>
    <g
       id="g52"
       style="fill:#ffffff"
       transform="matrix(1.7493122,0,0,1.7499488,-102.95048,-904.47286)">
      <g
         id="g50"
         style="fill:#ffffff"
         transform="translate(19,-242)">
        <path
           id="path48"
           style="fill:#ffffff"
           d="m 45.571203,764.57141 h 0.857142 c 0.0089,-1.1e-4 0.01782,-4e-4 0.02679,0 0.21853,0.01 0.437032,0.11021 0.589286,0.26785 l 1.955357,1.95536 1.982143,-1.95536 c 0.227678,-0.19757 0.382861,-0.26185 0.589285,-0.26785 h 0.857143 v 0.85714 c 0,0.24555 -0.02943,0.47199 -0.214285,0.64286 l -1.955357,1.95535 1.928571,1.92858 c 0.161304,0.16128 0.241064,0.38867 0.241071,0.61607 v 0.85714 h -0.857143 c -0.2274,-10e-6 -0.454788,-0.0798 -0.616071,-0.24107 l -1.955357,-1.95536 -1.955357,1.95536 c -0.161288,0.1613 -0.388684,0.24107 -0.616076,0.24107 h -0.857142 v -0.85714 c -3e-6,-0.22739 0.07977,-0.45479 0.241071,-0.61607 l 1.955357,-1.92858 -1.955357,-1.95535 c -0.180636,-0.16683 -0.259851,-0.40222 -0.241071,-0.64286 z" />
      </g>
    </g>
  </g>
</svg>
