<?xml version="1.0" encoding="UTF-8" standalone="no"?>
<svg
   xmlns:osb="http://www.openswatchbook.org/uri/2009/osb"
   xmlns:dc="http://purl.org/dc/elements/1.1/"
   xmlns:cc="http://creativecommons.org/ns#"
   xmlns:rdf="http://www.w3.org/1999/02/22-rdf-syntax-ns#"
   xmlns:svg="http://www.w3.org/2000/svg"
   xmlns="http://www.w3.org/2000/svg"
   xmlns:xlink="http://www.w3.org/1999/xlink"
   xmlns:sodipodi="http://sodipodi.sourceforge.net/DTD/sodipodi-0.dtd"
   xmlns:inkscape="http://www.inkscape.org/namespaces/inkscape"
   inkscape:version="1.0 (4035a4fb49, 2020-05-01)"
   sodipodi:docname="button.svg"
   id="svg2"
   width="60"
   height="90"
   version="1.0">
  <sodipodi:namedview
     inkscape:document-rotation="0"
     inkscape:lockguides="true"
     showguides="false"
     inkscape:current-layer="svg2"
     inkscape:window-maximized="1"
     inkscape:window-y="0"
     inkscape:window-x="60"
     inkscape:cy="35.425375"
     inkscape:cx="161.90611"
     inkscape:zoom="4"
     showgrid="false"
     id="namedview187"
     inkscape:window-height="1015"
     inkscape:window-width="1860"
     inkscape:pageshadow="2"
     inkscape:pageopacity="0"
     guidetolerance="10"
     gridtolerance="10"
     objecttolerance="10"
     borderopacity="1"
     bordercolor="#666666"
     pagecolor="#ffffff">
    <sodipodi:guide
       inkscape:locked="true"
       id="guide1053"
       orientation="1,0"
       position="90.875,-8.375" />
  </sodipodi:namedview>
  <metadata
     id="metadata7">
    <rdf:RDF>
      <cc:Work
         rdf:about="">
        <dc:format>image/svg+xml</dc:format>
        <dc:type
           rdf:resource="http://purl.org/dc/dcmitype/StillImage" />
        <dc:title />
      </cc:Work>
      <cc:Work
         rdf:about="">
        <dc:format>image/svg+xml</dc:format>
        <dc:type
           rdf:resource="http://purl.org/dc/dcmitype/StillImage" />
      </cc:Work>
      <cc:Work
         rdf:about="">
        <dc:format>image/svg+xml</dc:format>
        <dc:type
           rdf:resource="http://purl.org/dc/dcmitype/StillImage" />
      </cc:Work>
    </rdf:RDF>
  </metadata>
  <defs
     id="defs5">
    <linearGradient
       id="linearGradient1012"
       inkscape:collect="always">
      <stop
         id="stop1008"
         offset="0"
         style="stop-color:#8a496b;stop-opacity:0.204" />
      <stop
         id="stop1010"
         offset="1"
         style="stop-color:#8a496b;stop-opacity:1" />
    </linearGradient>
    <linearGradient
       id="linearGradient997"
       inkscape:collect="always">
      <stop
         id="stop993"
         offset="0"
         style="stop-color:#00ccff;stop-opacity:1;" />
      <stop
         id="stop995"
         offset="1"
         style="stop-color:#00ccff;stop-opacity:0;" />
    </linearGradient>
    <linearGradient
       id="linearGradient4480">
      <stop
         style="stop-color:#f3f7f7;stop-opacity:1"
         offset="0"
         id="stop4482" />
      <stop
         style="stop-color:#d3dbdb;stop-opacity:1"
         offset="1"
         id="stop4484" />
    </linearGradient>
    <linearGradient
       id="linearGradient4412">
      <stop
         id="stop4414"
         offset="0"
         style="stop-color:#f3f7f7;stop-opacity:1" />
      <stop
         id="stop4416"
         offset="1"
         style="stop-color:#e0e8e8;stop-opacity:1" />
    </linearGradient>
    <linearGradient
       id="linearGradient6476"
       osb:paint="solid">
      <stop
         style="stop-color:#ffffff;stop-opacity:1;"
         offset="0"
         id="stop6478" />
    </linearGradient>
    <linearGradient
       id="linearGradient6476-4"
       osb:paint="solid">
      <stop
         style="stop-color:#ffffff;stop-opacity:1;"
         offset="0"
         id="stop6478-8" />
    </linearGradient>
    <linearGradient
       id="linearGradient4134-0">
      <stop
         style="stop-color:#fafafa;stop-opacity:1;"
         offset="0"
         id="stop4136-9" />
      <stop
         id="stop5116"
         offset="1"
         style="stop-color:#fafafa;stop-opacity:1;" />
      <stop
         style="stop-color:#afb4b9;stop-opacity:0.3137255;"
         offset="1"
         id="stop4138-5" />
    </linearGradient>
    <linearGradient
       xlink:href="#linearGradient4134-0"
       id="linearGradient3424"
       gradientUnits="userSpaceOnUse"
       gradientTransform="translate(-879.80709,948.58403)"
       x1="160"
       y1="-159"
       x2="160"
       y2="-138" />
    <linearGradient
       xlink:href="#linearGradient4134-0"
       id="linearGradient3426"
       gradientUnits="userSpaceOnUse"
       gradientTransform="translate(-823.80709,948.58403)"
       x1="160"
       y1="-159"
       x2="160"
       y2="-138" />
    <linearGradient
       xlink:href="#linearGradient4134-0"
       id="linearGradient3480"
       gradientUnits="userSpaceOnUse"
       gradientTransform="translate(-879.80709,948.58403)"
       x1="160"
       y1="-159"
       x2="160"
       y2="-138" />
    <linearGradient
       xlink:href="#linearGradient4134-0"
       id="linearGradient3482"
       gradientUnits="userSpaceOnUse"
       gradientTransform="translate(-823.80709,948.58403)"
       x1="160"
       y1="-159"
       x2="160"
       y2="-138" />
    <linearGradient
       id="linearGradient5627-9">
      <stop
         style="stop-color:#0c6395;stop-opacity:1;"
         offset="0"
         id="stop5629-4" />
      <stop
         style="stop-color:#3daeef;stop-opacity:1;"
         offset="1"
         id="stop5631-1" />
    </linearGradient>
    <style
       type="text/css"
       id="current-color-scheme">
      .ColorScheme-Text {
        color:#31363b;
      }
      .ColorScheme-Background{
        color:#eff0f1;
      }
      .ColorScheme-ViewText {
        color:#31363b;
      }
      .ColorScheme-ViewBackground{
        color:#fcfcfc;
      }
      .ColorScheme-ViewHover {
        color:#3daee9;
      }
      .ColorScheme-ViewFocus{
        color:#3daee9;
      }
      .ColorScheme-ButtonText {
        color:#31363b;
      }
      .ColorScheme-ButtonBackground{
        color:#eff0f1;
      }
      .ColorScheme-ButtonHover {
        color:#3daee9;
      }
      .ColorScheme-ButtonFocus{
        color:#3daee9;
      }
</style>
    <linearGradient
       xlink:href="#linearGradient5627-9"
       id="linearGradient4381"
       x1="216"
       y1="107"
       x2="216"
       y2="110"
       gradientUnits="userSpaceOnUse" />
    <linearGradient
       xlink:href="#linearGradient5627-9"
       id="linearGradient4389"
       x1="216"
       y1="107"
       x2="216"
       y2="110"
       gradientUnits="userSpaceOnUse" />
    <linearGradient
       xlink:href="#linearGradient4412"
       id="linearGradient4356"
       x1="162"
       y1="-48"
       x2="162"
       y2="-14"
       gradientUnits="userSpaceOnUse" />
    <linearGradient
       xlink:href="#linearGradient4412"
       id="linearGradient4364"
       x1="-719.80719"
       y1="789.58398"
       x2="-719.80719"
       y2="810.58405"
       gradientUnits="userSpaceOnUse" />
    <linearGradient
       xlink:href="#linearGradient4412"
       id="linearGradient4372"
       x1="-664.80713"
       y1="789.58398"
       x2="-664.80713"
       y2="810.58405"
       gradientUnits="userSpaceOnUse" />
    <linearGradient
       xlink:href="#linearGradient5627-9"
       id="linearGradient4443"
       x1="146"
       y1="-145"
       x2="146"
       y2="-110"
       gradientUnits="userSpaceOnUse" />
    <linearGradient
       xlink:href="#linearGradient997"
       id="linearGradient4451"
       x1="215.35355"
       y1="-144.17677"
       x2="215"
       y2="-109.99986"
       gradientUnits="userSpaceOnUse" />
    <linearGradient
       xlink:href="#linearGradient1012"
       id="linearGradient4459"
       x1="215.24307"
       y1="-110.01468"
       x2="215.24307"
       y2="-145.04597"
       gradientUnits="userSpaceOnUse" />
  </defs>
  <g
     style="fill:#006a80;fill-opacity:1"
     id="pressed-left"
     transform="matrix(-1,0,0,1,325,0)">
    <rect
       transform="scale(1,-1)"
       style="opacity:0.01;fill:#006a80;fill-opacity:1;stroke:none"
       id="rect4176"
       width="1"
       height="34.999943"
       x="216"
       y="-144.99994"
       class="ColorScheme-ButtonFocus" />
    <rect
       class="ColorScheme-ButtonFocus"
       y="-144.9998"
       x="215"
       height="34.999943"
       width="1"
       id="rect4178"
       style="fill:#006a80;fill-opacity:1;stroke:none;opacity:0.6"
       transform="scale(1,-1)" />
    <rect
       transform="scale(-1,1)"
       style="opacity:1;fill:#006a80;fill-opacity:1;stroke:none"
       id="rect4180"
       width="1"
       height="34.999943"
       x="-217"
       y="110"
       class="ColorScheme-ButtonText" />
  </g>
  <g
     style="fill:#006a80;fill-opacity:1"
     id="pressed-topleft"
     transform="matrix(-1,0,0,1,325,0)">
    <path
       style="fill:#006a80;opacity:0.01;fill-opacity:1"
       d="m 215,107 0,1 0,2 1,0 0,-2 c 0,-0.55228 -0.44772,-1 -1,-1 z"
       id="path4184"
       class="ColorScheme-ButtonFocus" />
    <g
       style="fill:#006a80;fill-opacity:1"
       id="g4186">
      <path
         style="opacity:0.01;color:#3daee9;fill:#006a80;fill-opacity:1;stroke:none"
         d="m 215,106 c 1.10457,0 2,0.89543 2,2 l 0,2 -1,0 0,-2 c 0,-0.55228 -0.44772,-1 -1,-1 z"
         id="path4188"
         class="ColorScheme-ButtonFocus" />
      <path
         class="ColorScheme-ButtonText"
         id="path4190"
         d="m 215,106 c 1.10457,0 2,0.89543 2,2 l 0,2 -1,0 0,-2 c 0,-0.55228 -0.44772,-1 -1,-1 z"
         style="opacity:1;fill:#006a80;fill-opacity:1;stroke:none" />
    </g>
    <path
       inkscape:connector-curvature="0"
       id="path4397"
       d="m 215,107 v 1 2 h 1 v -2 c 0,-0.55228 -0.44772,-1 -1,-1 z"
       style="fill:#006a80;fill-opacity:1;stroke:none;opacity:0.6" />
  </g>
  <g
     style="fill:#006a80;fill-opacity:1"
     id="pressed-bottomleft"
     transform="matrix(-1,0,0,1,325,0)">
    <path
       style="opacity:0.01;fill:#006a80;fill-opacity:1;stroke:none"
       d="m 215,147 c 1.10457,0 2,-0.89543 2,-2 l -1,0 c 0,0.55228 -0.44772,1 -1,1 z"
       id="path4194"
       class="ColorScheme-ButtonFocus" />
    <path
       style="fill:#006a80;fill-opacity:1;stroke:none;opacity:0.58"
       d="m 215,145 0,1 c 0.55228,0 1,-0.44772 1,-1 l -1,0 z"
       id="path4196"
       class="ColorScheme-ButtonFocus" />
    <path
       class="ColorScheme-ButtonText"
       id="path4198"
       d="m 215,147 c 1.10457,0 2,-0.89543 2,-2 l -1,0 c 0,0.55228 -0.44772,1 -1,1 z"
       style="opacity:1;fill:#006a80;fill-opacity:1;stroke:none" />
  </g>
  <g
     style="fill:#006a80;fill-opacity:1"
     id="pressed-bottom">
    <rect
       transform="scale(1,-1)"
       y="-146"
       x="110.00005"
       height="1"
       width="105"
       id="rect5410"
       style="fill:#006a80;fill-opacity:1;stroke:none;opacity:0.6"
       class="ColorScheme-ButtonFocus" />
    <rect
       class="ColorScheme-ButtonFocus"
       style="opacity:0.01;fill:#006a80;fill-opacity:1;stroke:none"
       id="rect4086"
       width="105"
       height="1"
       x="110.00005"
       y="-147"
       transform="scale(1,-1)" />
    <rect
       transform="scale(1,-1)"
       y="-147"
       x="110.00005"
       height="1"
       width="105"
       id="rect4088"
       style="opacity:1;fill:#006a80;fill-opacity:1;stroke:none"
       class="ColorScheme-ButtonText" />
  </g>
  <g
     style="fill:#006a80;fill-opacity:1"
     id="pressed-right">
    <rect
       class="ColorScheme-ButtonFocus"
       y="-144.99994"
       x="216"
       height="35"
       width="1"
       id="rect3144"
       style="opacity:0.01;fill:#006a80;fill-opacity:1;stroke:none"
       transform="scale(1,-1)" />
    <rect
       transform="scale(1,-1)"
       style="fill:#006a80;fill-opacity:1;stroke:none;opacity:0.6"
       id="rect5434"
       width="1"
       height="35"
       x="215"
       y="-144.9998"
       class="ColorScheme-ButtonFocus" />
    <rect
       class="ColorScheme-ButtonText"
       y="110"
       x="-217"
       height="35"
       width="1"
       id="rect3135"
       style="opacity:1;fill:#006a80;fill-opacity:1;stroke:none"
       transform="scale(-1,1)" />
  </g>
  <g
     style="fill:#006a80;fill-opacity:1"
     id="pressed-top">
    <rect
       y="106"
       x="110"
       height="1"
       width="105"
       id="rect3921"
       style="opacity:0.01;color:#3daee9;fill:#006a80;fill-opacity:1"
       class="ColorScheme-ButtonFocus" />
    <g
       style="fill:#006a80;fill-opacity:1"
       id="g4202"
       transform="matrix(1.9090909,0,0,-1.5,1484.1774,1324.376)">
      <rect
         y="809.58398"
         x="-719.80719"
         height="2"
         width="55"
         id="rect5416"
         style="fill:#006a80;fill-opacity:1;opacity:0.01"
         class="ColorScheme-ButtonFocus" />
      <rect
         style="opacity:0.6;fill:#006a80;fill-opacity:1;stroke:none"
         id="rect4391"
         width="55"
         height="2"
         x="-719.80719"
         y="809.58398" />
    </g>
    <rect
       class="ColorScheme-ButtonText"
       style="opacity:1;fill:#006a80;fill-opacity:1;stroke:none"
       id="rect3123"
       width="105"
       height="1"
       x="110"
       y="106" />
  </g>
  <g
     id="normal-topleft"
     transform="translate(829.80716,-827.58398)">
    <path
       id="path4101"
       d="m -719.80709,777.58403 c -1.10457,0 -2,0.89543 -2,2 l 1,0 c 0,-0.55228 0.44772,-1 1,-1 l 0,-1 z"
       style="opacity:0.7;fill:#008864;fill-opacity:1;stroke:none"
       class="ColorScheme-ButtonText" />
    <path
       transform="matrix(-0.5,0,0,-0.5,-639.80709,700.08403)"
       d="m 162,-159 a 2,2 0 0 1 -2,2 l 0,-2 z"
       id="path4105"
       style="fill:currentColor;fill-opacity:1;stroke:none"
       class="ColorScheme-ButtonBackground" />
    <path
       class="ColorScheme-ButtonBackground"
       style="fill:#001c3c;fill-opacity:1;stroke:none"
       id="path3967"
       d="m 162,-159 a 2,2 0 0 1 -2,2 l 0,-2 z"
       transform="matrix(-0.5,0,0,-0.5,-639.80709,700.08403)" />
  </g>
  <g
     transform="translate(829.80716,-823.58399)"
     id="normal-bottomleft">
    <path
       style="opacity:0.7;fill:#008864;fill-opacity:1;stroke:none"
       d="m -719.80709,812.58403 c -1.10457,0 -2,-0.89543 -2,-2 l 1,0 c 0,0.55228 0.44772,1 1,1 l 0,1 z"
       id="path4111"
       class="ColorScheme-ButtonText" />
    <path
       style="fill:currentColor;fill-opacity:1;stroke:none"
       id="path4113"
       d="m 162,-159 a 2,2 0 0 1 -2,2 l 0,-2 z"
       transform="matrix(-0.5,0,0,0.5,-639.80709,890.08403)"
       class="ColorScheme-ButtonBackground" />
    <path
       transform="matrix(-0.5,0,0,0.5,-639.80709,890.08403)"
       d="m 162,-159 a 2,2 0 0 1 -2,2 l 0,-2 z"
       id="path3919"
       style="opacity:1;fill:#001c3c;fill-opacity:1;stroke:none" />
  </g>
  <g
     id="normal-left"
     transform="matrix(1,0,0,1.666664,829.80716,-1363.9712)">
    <rect
       y="789.58398"
       x="-721.80719"
       height="21"
       width="1"
       id="rect4108"
       style="opacity:0.7;fill:#008864;fill-opacity:1;stroke:none"
       class="ColorScheme-ButtonText" />
    <rect
       style="fill:currentColor;fill-opacity:1;stroke:none"
       id="rect4115"
       width="1"
       height="21"
       x="-720.80719"
       y="789.58398"
       class="ColorScheme-ButtonBackground" />
    <rect
       class="ColorScheme-ButtonBackground"
       y="789.58398"
       x="-720.80719"
       height="21"
       width="1"
       id="rect3943"
       style="fill:#001c3c;fill-opacity:1;stroke:none" />
  </g>
  <g
     id="normal-top"
     transform="matrix(1.9090909,0,0,1,1484.1774,-827.58398)">
    <rect
       y="777.58398"
       x="-719.80719"
       height="1"
       width="55"
       id="rect3329"
       style="opacity:0.7;fill:#008864;fill-opacity:1;stroke:none"
       class="ColorScheme-ButtonText" />
    <rect
       style="fill:currentColor;fill-opacity:1;stroke:none"
       id="rect4117"
       width="55"
       height="1"
       x="-719.80719"
       y="778.58398"
       class="ColorScheme-ButtonBackground" />
    <rect
       class="ColorScheme-ButtonBackground"
       y="778.58398"
       x="-719.80719"
       height="1"
       width="55"
       id="rect3965"
       style="fill:#001c3c;fill-opacity:1;stroke:none" />
  </g>
  <g
     id="normal-bottom"
     transform="matrix(1.9090909,0,0,1,1484.1774,-823.58399)">
    <rect
       style="opacity:0.7;fill:#008864;fill-opacity:1;stroke:none"
       id="rect4099"
       width="55"
       height="1"
       x="-719.80719"
       y="811.58398"
       class="ColorScheme-ButtonText" />
    <rect
       y="810.58398"
       x="-719.80719"
       height="1"
       width="55"
       id="rect4119"
       style="fill:currentColor;fill-opacity:1;stroke:none"
       class="ColorScheme-ButtonBackground" />
    <rect
       style="opacity:1;fill:#001c3c;fill-opacity:1;stroke:none"
       id="rect3149"
       width="55"
       height="1"
       x="-719.80719"
       y="810.58398" />
  </g>
  <g
     id="normal-topright"
     transform="translate(879.80713,-827.58398)">
    <path
       style="opacity:0.70000001;fill:#008864;fill-opacity:1;stroke:none"
       d="m -664.80709,777.58403 c 1.10457,0 2,0.89543 2,2 l -1,0 c 0,-0.55228 -0.44772,-1 -1,-1 l 0,-1 z"
       id="path4121"
       class="ColorScheme-ButtonText" />
    <path
       style="fill:currentColor;fill-opacity:1;stroke:none"
       id="path4123"
       d="m 162,-159 a 2,2 0 0 1 -2,2 l 0,-2 z"
       transform="matrix(0.5,0,0,-0.5,-744.80709,700.08403)"
       class="ColorScheme-ButtonBackground" />
    <path
       class="ColorScheme-ButtonBackground"
       transform="matrix(0.5,0,0,-0.5,-744.80709,700.08403)"
       d="m 162,-159 a 2,2 0 0 1 -2,2 l 0,-2 z"
       id="path3963"
       style="fill:#001c3c;fill-opacity:1;stroke:none" />
  </g>
  <g
     id="normal-bottomright"
     transform="translate(879.80713,-823.58399)">
    <path
       id="path4127"
       d="m -664.80709,812.58403 c 1.10457,0 2,-0.89543 2,-2 l -1,0 c 0,0.55228 -0.44772,1 -1,1 l 0,1 z"
       style="opacity:0.7;fill:#008864;fill-opacity:1;stroke:none"
       class="ColorScheme-ButtonText" />
    <path
       transform="matrix(0.5,0,0,0.5,-744.80709,890.08403)"
       d="m 162,-159 a 2,2 0 0 1 -2,2 l 0,-2 z"
       id="path4130"
       style="fill:currentColor;fill-opacity:1;stroke:none"
       class="ColorScheme-ButtonBackground" />
    <path
       class="ColorScheme-ButtonBackground"
       style="opacity:1;color:#eff0f1;fill:#001c3c;fill-opacity:1;stroke:none"
       id="path3921"
       d="m 162,-159 a 2,2 0 0 1 -2,2 l 0,-2 z"
       transform="matrix(0.5,0,0,0.5,-744.80709,890.08403)" />
  </g>
  <g
     id="normal-right"
     transform="matrix(1,0,0,1.666664,879.80713,-1363.9712)">
    <rect
       transform="scale(-1,1)"
       style="opacity:0.7;fill:#008864;fill-opacity:1;stroke:none"
       id="rect4125"
       width="1"
       height="21"
       x="662.80713"
       y="789.58398"
       class="ColorScheme-ButtonText" />
    <rect
       y="789.58398"
       x="-664.80713"
       height="21"
       width="1"
       id="rect4142"
       style="fill:currentColor;fill-opacity:1;stroke:none"
       class="ColorScheme-ButtonBackground" />
    <rect
       class="ColorScheme-ButtonBackground"
       style="fill:#001c3c;fill-opacity:1;stroke:none"
       id="rect3953"
       width="1"
       height="21"
       x="-664.80713"
       y="789.58398" />
  </g>
  <g
     id="normal-center">
    <rect
       class="ColorScheme-ButtonBackground"
       y="-47.99995"
       x="110.00007"
       height="34.999943"
       width="105"
       id="rect3935"
       style="color:#eff0f1;opacity:0.01000001;fill:#707880;fill-opacity:1;stroke:none" />
    <rect
       style="color:#eff0f1;opacity:0.01000001;fill:#006a80;fill-opacity:1;stroke:none"
       id="rect3933"
       width="105"
       height="34.999943"
       x="109.99997"
       y="-48"
       class="ColorScheme-ButtonBackground" />
  </g>
  <rect
     ry="0"
     y="-144.99998"
     x="109.99997"
     height="34.999943"
     width="105"
     id="pressed-center"
     style="color:#3daee9;opacity:0.6;fill:#006a80;fill-opacity:1;stroke:none"
     transform="scale(1,-1)"
     class="ColorScheme-ButtonFocus" />
  <g
     transform="translate(829.80716,-771.58398)"
     id="hover-topleft">
    <path
       class="ColorScheme-ButtonHover"
       style="opacity:1;fill:#21574e;fill-opacity:1;stroke:none"
       d="m -719.80709,777.58403 c -1.10457,0 -2,0.89543 -2,2 l 1,0 c 0,-0.55228 0.44772,-1 1,-1 l 0,-1 z"
       id="path3376" />
  </g>
  <g
     id="hover-bottomleft"
     transform="translate(829.80716,-767.58399)">
    <path
       class="ColorScheme-ButtonHover"
       id="path3382"
       d="m -719.80709,812.58403 c -1.10457,0 -2,-0.89543 -2,-2 l 1,0 c 0,0.55228 0.44772,1 1,1 l 0,1 z"
       style="opacity:1;fill:#21574e;fill-opacity:1;stroke:none" />
  </g>
  <g
     transform="matrix(1,0,0,1.666664,829.80716,-1307.9712)"
     id="hover-left">
    <rect
       class="ColorScheme-ButtonHover"
       style="opacity:1;fill:#21574e;fill-opacity:1;stroke:none"
       id="rect3388"
       width="1"
       height="21"
       x="-721.80719"
       y="789.58398" />
  </g>
  <g
     transform="matrix(1.9090909,0,0,1,1484.1774,-771.58398)"
     id="hover-top">
    <rect
       class="ColorScheme-ButtonHover"
       style="opacity:1;fill:#21574e;fill-opacity:1;stroke:none"
       id="rect3394"
       width="55"
       height="1"
       x="-719.80719"
       y="777.58398" />
  </g>
  <g
     transform="matrix(1.9090909,0,0,1,1484.1774,-767.58399)"
     id="hover-bottom">
    <rect
       class="ColorScheme-ButtonHover"
       y="811.58398"
       x="-719.80719"
       height="1"
       width="55"
       id="rect3400"
       style="opacity:1;fill:#21574e;fill-opacity:1;stroke:none" />
  </g>
  <g
     transform="translate(879.80713,-771.58398)"
     id="hover-topright">
    <path
       class="ColorScheme-ButtonHover"
       id="path3406"
       d="m -664.80709,777.58403 c 1.10457,0 2,0.89543 2,2 l -1,0 c 0,-0.55228 -0.44772,-1 -1,-1 l 0,-1 z"
       style="opacity:1;fill:#21574e;fill-opacity:1;stroke:none" />
  </g>
  <g
     transform="translate(879.80713,-767.58399)"
     id="hover-bottomright">
    <path
       class="ColorScheme-ButtonHover"
       style="opacity:1;fill:#21574e;fill-opacity:1;stroke:none"
       d="m -664.80709,812.58403 c 1.10457,0 2,-0.89543 2,-2 l -1,0 c 0,0.55228 -0.44772,1 -1,1 l 0,1 z"
       id="path3412" />
  </g>
  <g
     transform="matrix(1,0,0,1.666664,879.80713,-1307.9712)"
     id="hover-right">
    <rect
       class="ColorScheme-ButtonHover"
       y="789.58398"
       x="662.80713"
       height="21"
       width="1"
       id="rect3418"
       style="opacity:1;fill:#21574e;fill-opacity:1;stroke:none"
       transform="scale(-1,1)" />
  </g>
  <rect
     class="ColorScheme-Background"
     y="8.0000458"
     x="109.99997"
     height="34.999943"
     width="105"
     id="hover-center"
     style="fill:#006a80;fill-opacity:1;stroke:none;opacity:0.2" />
  <g
     id="focus-topleft"
     transform="translate(829.80716,-723.58398)">
    <path
       sodipodi:nodetypes="cccscc"
       class="ColorScheme-ButtonHover"
       style="opacity:1;fill:#006a80;fill-opacity:1;stroke:none"
       d="m -719.80716,776.58403 c -1.65685,0 -3,1.34314 -3,3 h 1 c 0,-0.44786 0.2425,-0.99604 0.688,-1.40517 0.37855,-0.34764 0.93144,-0.59488 1.312,-0.59488 z"
       id="path3936" />
  </g>
  <g
     transform="translate(829.80716,-719.58399)"
     id="focus-bottomleft">
    <path
       sodipodi:nodetypes="cccscc"
       class="ColorScheme-ButtonHover"
       id="path3940"
       d="m -719.80716,813.58399 c -1.65685,0 -3,-1.34314 -3,-3 h 1 c 0,0.423 0.20574,0.93546 0.615,1.33574 0.39225,0.38366 0.97958,0.66426 1.385,0.66426 z"
       style="opacity:1;fill:#006a80;fill-opacity:1;stroke:none" />
  </g>
  <g
     id="focus-left"
     transform="matrix(1,0,0,1.666664,829.80716,-1259.9712)">
    <rect
       class="ColorScheme-ButtonHover"
       style="fill:#006a80;fill-opacity:1;stroke:none;opacity:1"
       id="rect3938"
       width="1"
       height="21"
       x="-722.80719"
       y="789.58398" />
  </g>
  <g
     id="focus-top"
     transform="matrix(1.9090909,0,0,1,1484.1774,-723.58398)">
    <rect
       class="ColorScheme-ButtonHover"
       style="fill:#006a80;fill-opacity:1;stroke:none;opacity:1"
       id="rect3934"
       width="55"
       height="1"
       x="-719.80719"
       y="776.58398" />
  </g>
  <g
     id="focus-bottom"
     transform="matrix(1.9090909,0,0,1,1484.1774,-719.58399)">
    <rect
       class="ColorScheme-ButtonHover"
       y="812.58398"
       x="-719.80719"
       height="1"
       width="55"
       id="rect3926"
       style="fill:#006a80;fill-opacity:1;stroke:none;opacity:1" />
  </g>
  <g
     id="focus-topright"
     transform="translate(879.80713,-723.58398)">
    <path
       sodipodi:nodetypes="cccscc"
       class="ColorScheme-ButtonHover"
       id="path3932"
       d="m -664.80709,776.58403 c 1.65685,0 3,1.34314 3,3 h -1.00004 c 0,-0.40274 -0.17726,-0.88659 -0.557,-1.27751 -0.40137,-0.41318 -1.01728,-0.72254 -1.44296,-0.72254 z"
       style="opacity:1;fill:#006a80;fill-opacity:1;stroke:none" />
  </g>
  <g
     id="focus-bottomright"
     transform="translate(879.80713,-719.58399)">
    <path
       sodipodi:nodetypes="cccscc"
       class="ColorScheme-ButtonHover"
       style="opacity:1;fill:#006a80;fill-opacity:1;stroke:none"
       d="m -664.80709,813.58399 c 1.65685,0 3,-1.34314 3,-3 h -1.00004 c 0,0.41798 -0.19806,0.92332 -0.6,1.32146 -0.39469,0.39095 -0.98956,0.67854 -1.4,0.67854 z"
       id="path3928" />
  </g>
  <g
     id="focus-right"
     transform="matrix(1,0,0,1.666664,879.80713,-1259.9712)">
    <rect
       class="ColorScheme-ButtonHover"
       y="789.58398"
       x="661.80713"
       height="21"
       width="1"
       id="rect3930"
       style="fill:#006a80;fill-opacity:1;stroke:none;opacity:1"
       transform="scale(-1,1)" />
  </g>
  <rect
     style="fill:#21574e;fill-opacity:1;fill-rule:nonzero;stroke:none"
     id="focus-hint-top-margin"
     width="2"
     height="1"
     x="81"
     y="63.000046" />
  <rect
     y="87.000046"
     x="81"
     height="1"
     width="2"
     id="focus-hint-bottom-margin"
     style="fill:#21574e;fill-opacity:1;fill-rule:nonzero;stroke:none" />
  <rect
     y="74.000046"
     x="70"
     height="1.9999999"
     width="1"
     id="focus-hint-left-margin"
     style="fill:#21574e;fill-opacity:1;fill-rule:nonzero;stroke:none" />
  <rect
     style="fill:#21574e;fill-opacity:1;fill-rule:nonzero;stroke:none"
     id="focus-hint-right-margin"
     width="1"
     height="1.9999999"
     x="94"
     y="74.000046" />
  <rect
     y="14.990044"
     x="81"
     height="0.0099999998"
     width="2"
     id="hover-hint-top-margin"
     style="fill:#4e9a06;fill-opacity:1;fill-rule:nonzero;stroke:none" />
  <rect
     style="fill:#4e9a06;fill-opacity:1;fill-rule:nonzero;stroke:none"
     id="hover-hint-bottom-margin"
     width="2"
     height="0.0099999998"
     x="81"
     y="37.990047" />
  <g
     id="g4066"
     transform="translate(41,52)">
    <rect
       style="opacity:0;fill:#4e9a06;fill-opacity:1;fill-rule:nonzero;stroke:none"
       id="rect4260"
       width="8"
       height="1.9999999"
       x="13"
       y="33" />
  </g>
  <rect
     style="fill:#4e9a06;fill-opacity:1;fill-rule:nonzero;stroke:none"
     id="hover-hint-left-margin"
     width="0.0099999998"
     height="1.9999999"
     x="70"
     y="25.000046" />
  <rect
     y="25.000046"
     x="95"
     height="1.9999999"
     width="0.0099999998"
     id="hover-hint-right-margin"
     style="fill:#4e9a06;fill-opacity:1;fill-rule:nonzero;stroke:none" />
  <rect
     style="fill:#006a80;fill-opacity:1;fill-rule:nonzero;stroke:none"
     id="normal-hint-bottom-margin"
     width="2"
     height="6"
     x="158"
     y="-16.999954" />
  <rect
     y="-49.999954"
     x="156"
     height="6"
     width="2"
     id="normal-hint-top-margin"
     style="fill:#006a80;fill-opacity:1;fill-rule:nonzero;stroke:none" />
  <rect
     transform="matrix(0,-1,1,0,0,0)"
     style="fill:#006a80;fill-opacity:1;fill-rule:nonzero;stroke:none"
     id="normal-hint-left-margin"
     width="2"
     height="6"
     x="28.999954"
     y="108" />
  <rect
     style="fill:#006a80;fill-opacity:1;fill-rule:nonzero;stroke:none"
     id="pressed-hint-top-margin"
     width="2"
     height="6"
     x="158"
     y="107.00005" />
  <rect
     transform="matrix(0,-1,1,0,0,0)"
     style="fill:#006a80;fill-opacity:1;fill-rule:nonzero;stroke:none"
     id="pressed-hint-right-margin"
     width="2"
     height="6"
     x="-129.00005"
     y="211" />
  <rect
     ry="0"
     y="10"
     x="-15"
     height="2.6611671"
     width="3"
     id="normal-hint-compose-over-border"
     style="fill:#21574e;fill-opacity:1;fill-rule:nonzero;stroke:none" />
  <rect
     style="fill:#21574e;fill-opacity:1;fill-rule:nonzero;stroke:none"
     id="pressed-hint-compose-over-border"
     width="3"
     height="2.6611671"
     x="-15"
     y="50"
     ry="0" />
  <rect
     y="211"
     x="28.999954"
     height="6"
     width="2"
     id="normal-hint-right-margin"
     style="fill:#006a80;fill-opacity:1;fill-rule:nonzero;stroke:none"
     transform="matrix(0,-1,1,0,0,0)" />
  <rect
     y="108"
     x="-129.00005"
     height="6"
     width="2"
     id="pressed-hint-left-margin"
     style="fill:#006a80;fill-opacity:1;fill-rule:nonzero;stroke:none"
     transform="matrix(0,-1,1,0,0,0)" />
  <rect
     y="141.00005"
     x="161"
     height="6"
     width="2"
     id="pressed-hint-bottom-margin"
     style="fill:#006a80;fill-opacity:1;fill-rule:nonzero;stroke:none" />
  <g
     style="fill:#006a80;fill-opacity:1"
     id="pressed-topright">
    <path
       id="path4204"
       d="m 215,107 0,1 0,2 1,0 0,-2 c 0,-0.55228 -0.44772,-1 -1,-1 z"
       style="fill:#006a80;opacity:0.01;fill-opacity:1"
       class="ColorScheme-ButtonFocus" />
    <g
       style="fill:#006a80;fill-opacity:1"
       id="g4097">
      <path
         class="ColorScheme-ButtonFocus"
         id="path3917"
         d="m 215,106 c 1.10457,0 2,0.89543 2,2 l 0,2 -1,0 0,-2 c 0,-0.55228 -0.44772,-1 -1,-1 z"
         style="opacity:0.01;color:#3daee9;fill:#006a80;fill-opacity:1;stroke:none" />
      <path
         style="opacity:1;fill:#006a80;fill-opacity:1;stroke:none"
         d="m 215,106 c 1.10457,0 2,0.89543 2,2 l 0,2 -1,0 0,-2 c 0,-0.55228 -0.44772,-1 -1,-1 z"
         id="path3129"
         class="ColorScheme-ButtonText" />
    </g>
    <path
       inkscape:connector-curvature="0"
       style="opacity:0.6;fill:#006a80;fill-opacity:1;stroke:none"
       d="m 215,107 v 1 2 h 1 v -2 c 0,-0.55228 -0.44772,-1 -1,-1 z"
       id="path4395" />
  </g>
  <g
     style="fill:#006a80;fill-opacity:1"
     id="pressed-bottomright">
    <path
       class="ColorScheme-ButtonFocus"
       id="path4083"
       d="m 215,147 c 1.10457,0 2,-0.89543 2,-2 l -1,0 c 0,0.55228 -0.44772,1 -1,1 z"
       style="opacity:0.01;fill:#006a80;fill-opacity:1;stroke:none" />
    <path
       class="ColorScheme-ButtonFocus"
       id="path4206"
       d="m 215,145 0,1 c 0.55228,0 1,-0.44772 1,-1 l -1,0 z"
       style="fill:#006a80;fill-opacity:1;stroke:none;opacity:0.6" />
    <path
       style="opacity:1;fill:#006a80;fill-opacity:1;stroke:none"
       d="m 215,147 c 1.10457,0 2,-0.89543 2,-2 l -1,0 c 0,0.55228 -0.44772,1 -1,1 z"
       id="path3925"
       class="ColorScheme-ButtonText" />
  </g>
</svg>
