<?xml version="1.0" encoding="UTF-8" standalone="no"?>
<svg
   version="1.0"
   width="16"
   height="16"
   id="svg2"
   sodipodi:docname="checkmarks.svg"
   inkscape:version="1.1.1 (3bf5ae0d25, 2021-09-20)"
   xmlns:inkscape="http://www.inkscape.org/namespaces/inkscape"
   xmlns:sodipodi="http://sodipodi.sourceforge.net/DTD/sodipodi-0.dtd"
   xmlns="http://www.w3.org/2000/svg"
   xmlns:svg="http://www.w3.org/2000/svg"
   xmlns:rdf="http://www.w3.org/1999/02/22-rdf-syntax-ns#"
   xmlns:cc="http://creativecommons.org/ns#"
   xmlns:dc="http://purl.org/dc/elements/1.1/">
  <sodipodi:namedview
     showguides="false"
     pagecolor="#ffffff"
     bordercolor="#666666"
     borderopacity="1"
     objecttolerance="10"
     gridtolerance="10"
     guidetolerance="10"
     inkscape:pageopacity="0"
     inkscape:pageshadow="2"
     inkscape:window-width="1920"
     inkscape:window-height="1007"
     id="namedview12"
     showgrid="false"
     inkscape:zoom="12.457847"
     inkscape:cx="-8.0270692"
     inkscape:cy="4.2142113"
     inkscape:window-x="0"
     inkscape:window-y="0"
     inkscape:window-maximized="1"
     inkscape:current-layer="svg2"
     inkscape:document-rotation="0"
     inkscape:pagecheckerboard="0">
    <inkscape:grid
       id="grid836"
       type="xygrid" />
  </sodipodi:namedview>
  <defs
     id="defs4" />
  <metadata
     id="metadata7">
    <rdf:RDF>
      <cc:Work
         rdf:about="">
        <dc:format>image/svg+xml</dc:format>
        <dc:type
           rdf:resource="http://purl.org/dc/dcmitype/StillImage" />
      </cc:Work>
    </rdf:RDF>
  </metadata>
  <g
     transform="translate(0,-64)"
     id="layer1">
    <g
       transform="translate(18)"
       id="checkbox">
      <rect
         width="16"
         height="16"
         rx="16.456314"
         ry="0"
         x="0"
         y="64"
         id="rect3706"
         style="opacity:0;fill:#7d7d7d;fill-opacity:1;fill-rule:nonzero;stroke:none" />
      <path
         d="m 10.854535,68.720269 c -0.294298,0.0077 -0.603587,0.13399 -0.834836,0.365239 L 6.6803613,72.424844 5.010694,70.755177 C 4.5481962,70.292676 3.8327069,70.263496 3.3932044,70.703001 l -0.1043545,0.104353 c -0.4395033,0.439504 -0.410322,1.154989 0.052177,1.617492 l 2.3218811,2.295789 c 0.040651,0.06279 0.075503,0.101612 0.1304436,0.156534 l 0.052176,0.05224 0.052177,0.05224 c 0.041812,0.03716 0.08534,0.07389 0.1304431,0.104352 0.011102,0.0078 0.014759,0.01864 0.02609,0.02606 0.055987,0.03556 0.1231261,0.05289 0.1826198,0.07828 0.052068,0.02203 0.1020146,0.03863 0.1565313,0.05226 0.018829,0.0052 0.033208,0.02201 0.052177,0.02606 0.1442236,0.02798 0.2968479,0.02892 0.4435056,0 0.027581,-0.0044 0.05111,-0.01931 0.078269,-0.02606 0.1981318,-0.05366 0.3894698,-0.15467 0.5478598,-0.313062 l 0.052176,-0.05221 c 0.054936,-0.0549 0.089787,-0.09372 0.1304419,-0.156531 l 3.9915439,-3.96546 c 0.462499,-0.462489 0.491683,-1.177989 0.05225,-1.617479 l -0.104401,-0.104366 c -0.219746,-0.219794 -0.488354,-0.320607 -0.782646,-0.313104 z"
         id="rect2910"
         style="fill:#008864;fill-opacity:1;fill-rule:nonzero;stroke:none;stroke-width:0.834836"
         inkscape:connector-curvature="0" />
    </g>
    <g
       id="radiobutton">
      <rect
         width="16"
         height="16"
         rx="87.767006"
         ry="0"
         x="0"
         y="64"
         id="rect3736"
         style="opacity:0;fill:#9f9f9f;fill-opacity:1;fill-rule:nonzero;stroke:none" />
      <path
         d="m 11.691758,72.058242 a 3.7500001,3.7500001 0 1 1 -7.5000002,0 3.7500001,3.7500001 0 1 1 7.5000002,0 z"
         id="path3716"
         style="fill:#008864;fill-opacity:1;fill-rule:nonzero;stroke:none;stroke-width:1.67705"
         inkscape:connector-curvature="0" />
    </g>
  </g>
</svg>
