<?xml version="1.0" encoding="UTF-8" standalone="no"?>
<svg
   xmlns:dc="http://purl.org/dc/elements/1.1/"
   xmlns:cc="http://creativecommons.org/ns#"
   xmlns:rdf="http://www.w3.org/1999/02/22-rdf-syntax-ns#"
   xmlns:svg="http://www.w3.org/2000/svg"
   xmlns="http://www.w3.org/2000/svg"
   xmlns:sodipodi="http://sodipodi.sourceforge.net/DTD/sodipodi-0.dtd"
   xmlns:inkscape="http://www.inkscape.org/namespaces/inkscape"
   version="1.0"
   height="103.61639"
   width="100.74258"
   id="svg2"
   sodipodi:docname="listitem.svg"
   inkscape:version="0.92.4 (5da689c313, 2019-01-14)">
  <sodipodi:namedview
     pagecolor="#ffffff"
     bordercolor="#666666"
     borderopacity="1"
     objecttolerance="10"
     gridtolerance="10"
     guidetolerance="10"
     inkscape:pageopacity="0"
     inkscape:pageshadow="2"
     inkscape:window-width="1280"
     inkscape:window-height="982"
     id="namedview58"
     showgrid="false"
     inkscape:zoom="1.5733333"
     inkscape:cx="35.445815"
     inkscape:cy="164.14231"
     inkscape:window-x="0"
     inkscape:window-y="0"
     inkscape:window-maximized="1"
     inkscape:current-layer="svg2" />
  <metadata
     id="metadata7">
    <rdf:RDF>
      <cc:Work
         rdf:about="">
        <dc:format>image/svg+xml</dc:format>
        <dc:type
           rdf:resource="http://purl.org/dc/dcmitype/StillImage" />
        <dc:title />
      </cc:Work>
      <cc:Work
         rdf:about="">
        <dc:format>image/svg+xml</dc:format>
        <dc:type
           rdf:resource="http://purl.org/dc/dcmitype/StillImage" />
      </cc:Work>
    </rdf:RDF>
  </metadata>
  <defs
     id="defs5">
    <style
       type="text/css"
       id="current-color-scheme">      .ColorScheme-Text {
        color:#31363b;
      }
      .ColorScheme-Background{
        color:#eff0f1;
      }
      .ColorScheme-ViewText {
        color:#31363b;
      }
      .ColorScheme-ViewBackground{
        color:#fcfcfc;
      }
      .ColorScheme-ViewHover {
        color:#3daee9;
      }
      .ColorScheme-ViewFocus{
        color:#3daee9;
      }
      .ColorScheme-ButtonText {
        color:#31363b;
      }
      .ColorScheme-ButtonBackground{
        color:#eff0f1;
      }
      .ColorScheme-ButtonHover {
        color:#3daee9;
      }
      .ColorScheme-ButtonFocus{
        color:#3daee9;
      }</style>
  </defs>
  <rect
     style="fill:#5e81ac;fill-opacity:1;fill-rule:nonzero;stroke:none"
     id="hint-tile-center"
     width="2.0329318"
     height="2.077126"
     x="-23.257416"
     y="-12.158898"
     rx="0"
     ry="2.077126" />
  <rect
     y="0"
     x="11.961865"
     height="6"
     width="2"
     id="pressed-hint-top-margin"
     style="fill:#006a80;fill-opacity:1;fill-rule:nonzero;stroke:none" />
  <rect
     style="fill:#006a80;fill-opacity:1;fill-rule:nonzero;stroke:none"
     id="pressed-hint-bottom-margin"
     width="2"
     height="6"
     x="11.213984"
     y="19.98093" />
  <rect
     style="fill:#006a80;fill-opacity:1;fill-rule:nonzero;stroke:none"
     id="pressed-hint-left-margin"
     width="4"
     height="2"
     x="0"
     y="12.728813" />
  <rect
     y="12.569915"
     x="20.3125"
     height="2"
     width="4"
     id="pressed-hint-right-margin"
     style="fill:#006a80;fill-opacity:1;fill-rule:nonzero;stroke:none" />
  <rect
     y="55.841103"
     x="3.7425852"
     height="1.9999999"
     width="4"
     id="normal-hint-left-margin"
     style="fill:#006a80;fill-opacity:1;fill-rule:nonzero;stroke:none" />
  <rect
     style="fill:#006a80;fill-opacity:1;fill-rule:nonzero;stroke:none"
     id="normal-hint-top-margin"
     width="2"
     height="6"
     x="14.742585"
     y="41.841103" />
  <rect
     y="64.841103"
     x="15.742585"
     height="6"
     width="2"
     id="normal-hint-bottom-margin"
     style="fill:#006a80;fill-opacity:1;fill-rule:nonzero;stroke:none" />
  <rect
     style="fill:#006a80;fill-opacity:1;fill-rule:nonzero;stroke:none"
     id="normal-hint-right-margin"
     width="4"
     height="2"
     x="24.742584"
     y="55.841103" />
  <g
     transform="translate(-2.2574148,-6.1588984)"
     style="opacity:1"
     id="separator">
    <rect
       style="color:#fcfcfc;opacity:0.2;fill:currentColor;fill-opacity:1;stroke:none"
       id="rect4052"
       width="40"
       height="1"
       x="63"
       y="-49"
       transform="scale(1,-1)"
       class="ColorScheme-ViewBackground" />
    <rect
       class="ColorScheme-ViewText"
       transform="scale(1,-1)"
       y="-49"
       x="63"
       height="1"
       width="40"
       id="rect4054"
       style="color:#31363b;opacity:0.3;fill:#006a80;fill-opacity:1;stroke:none" />
  </g>
  <path
     class="ColorScheme-ViewBackground"
     style="color:#fcfcfc;opacity:0.05;fill:#65abab;fill-opacity:1;fill-rule:nonzero;stroke:none"
     d="m 10.742585,50.841447 v 11 h 10.999999 v -11 z"
     id="normal-center"
     inkscape:connector-curvature="0" />
  <path
     class="ColorScheme-ViewBackground"
     style="color:#fcfcfc;opacity:0.05;fill:#65abab;fill-opacity:1;fill-rule:nonzero;stroke:none"
     d="m 21.742585,50.841447 v 11 h 2 c 6.68e-4,-0.01835 0,-0.03439 0,-0.05288 v -10.89423 c 0,-0.0185 6.68e-4,-0.03453 0,-0.05288 h -2 z"
     id="normal-right"
     inkscape:connector-curvature="0" />
  <path
     class="ColorScheme-ViewBackground"
     style="color:#fcfcfc;opacity:0.05;fill:#65abab;fill-opacity:1;fill-rule:nonzero;stroke:none"
     d="m 10.742585,48.8414 v 2.000047 H 21.742584 V 48.8414 c -0.0041,-6.7e-4 0.0042,0 10e-7,0 h -10.98814 c -0.004,0 -0.008,-6.7e-4 -0.0119,0 z"
     id="normal-top"
     inkscape:connector-curvature="0" />
  <path
     class="ColorScheme-ViewBackground"
     style="color:#fcfcfc;opacity:0.05;fill:#65abab;fill-opacity:1;fill-rule:nonzero;stroke:none"
     d="m 8.7428852,50.841447 c -6.7e-4,0.01835 0,0.03439 0,0.05288 v 10.89423 c 0,0.0185 -6.7e-4,0.03453 0,0.05288 h 1.9999998 v -11 H 8.7428852 Z"
     id="normal-left"
     inkscape:connector-curvature="0" />
  <path
     class="ColorScheme-ViewBackground"
     style="color:#fcfcfc;opacity:0.05;fill:#65abab;fill-opacity:1;fill-rule:nonzero;stroke:none"
     d="m 10.742585,61.841102 v 2 h 11 v -1.999655 z"
     id="normal-bottom"
     inkscape:connector-curvature="0" />
  <path
     class="ColorScheme-ViewBackground"
     id="normal-topleft"
     d="m 8.7425522,48.8414 v 2.000047 H 10.742323 V 48.8414 c -7.46e-4,-6.7e-4 7.63e-4,0 0,0 H 8.7447092 c -7.28e-4,0 -0.0015,-6.7e-4 -0.0022,0 z"
     style="color:#fcfcfc;opacity:0.05;fill:#65abab;fill-opacity:1;fill-rule:nonzero;stroke:none"
     inkscape:connector-curvature="0" />
  <path
     class="ColorScheme-ViewBackground"
     id="normal-topright"
     d="m 21.742592,48.841745 v 1.999702 h 1.999771 v -1.999702 c -7.46e-4,-6.7e-4 7.63e-4,0 0,0 h -1.997614 c -7.28e-4,0 -0.0015,-6.7e-4 -0.0022,0 z"
     style="color:#fcfcfc;opacity:0.05;fill:#65abab;fill-opacity:1;fill-rule:nonzero;stroke:none"
     inkscape:connector-curvature="0" />
  <path
     class="ColorScheme-ViewBackground"
     style="color:#fcfcfc;opacity:0.05;fill:#65abab;fill-opacity:1;fill-rule:nonzero;stroke:none"
     d="m 21.742592,61.8414 v 1.999702 h 1.999771 V 61.8414 c -7.46e-4,-6.7e-4 7.63e-4,0 0,0 h -1.997614 c -7.28e-4,0 -0.0015,-6.7e-4 -0.0022,0 z"
     id="normal-bottomright"
     inkscape:connector-curvature="0" />
  <path
     class="ColorScheme-ViewBackground"
     id="normal-bottomleft"
     d="m 8.7425922,61.8414 v 1.999702 H 10.742363 V 61.8414 c -7.46e-4,-6.7e-4 7.63e-4,0 0,0 H 8.7447492 c -7.28e-4,0 -0.0015,-6.7e-4 -0.0022,0 z"
     style="color:#fcfcfc;opacity:0.05;fill:#65abab;fill-opacity:1;fill-rule:nonzero;stroke:none"
     inkscape:connector-curvature="0" />
  <path
     class="ColorScheme-ViewFocus"
     style="color:#3daee9;opacity:0.05;fill:#006a80;fill-opacity:1;fill-rule:nonzero;stroke:none"
     d="M 6.7422852,7.8411166 V 18.841122 H 17.742284 V 7.8411166 Z"
     id="pressed-center"
     inkscape:connector-curvature="0" />
  <path
     class="ColorScheme-ViewFocus"
     style="color:#3daee9;opacity:0.1;fill:#006a80;fill-opacity:1;fill-rule:nonzero;stroke:none"
     d="M 17.742285,7.8411166 V 18.841122 h 2 c 6.68e-4,-0.01835 0,-0.0344 0,-0.05289 V 7.8940016 c 0,-0.0185 6.68e-4,-0.03453 0,-0.05288 h -2 z"
     id="pressed-right"
     inkscape:connector-curvature="0" />
  <path
     class="ColorScheme-ViewFocus"
     style="color:#3daee9;opacity:0.1;fill:#006a80;fill-opacity:1;fill-rule:nonzero;stroke:none"
     d="m 6.7422852,5.8410696 v 2.000047 H 17.742284 v -2.000047 c -0.0041,-6.7e-4 0.0045,0 3.01e-4,0 H 6.7541452 c -0.004,0 -0.008,-6.7e-4 -0.0119,0 z"
     id="pressed-top"
     inkscape:connector-curvature="0" />
  <path
     class="ColorScheme-ViewFocus"
     style="color:#3daee9;opacity:0.1;fill:#006a80;fill-opacity:1;fill-rule:nonzero;stroke:none"
     d="m 4.7425852,7.8411166 c -6.7e-4,0.01835 0,0.03439 0,0.05288 V 18.788227 c 0,0.0185 -6.7e-4,0.03453 0,0.05288 h 2 V 7.8411016 h -2 z"
     id="pressed-left"
     inkscape:connector-curvature="0" />
  <path
     class="ColorScheme-ViewFocus"
     style="color:#3daee9;opacity:0.1;fill:#006a80;fill-opacity:1;fill-rule:nonzero"
     d="m 6.7425852,18.841102 v 2 H 17.742585 v -2 z"
     id="pressed-bottom"
     inkscape:connector-curvature="0" />
  <path
     class="ColorScheme-ViewFocus"
     id="pressed-topleft"
     d="m 4.7422522,5.8410696 v 2.000047 h 1.999722 v -2.000047 c -7.45e-4,-6.7e-4 8.18e-4,0 5.5e-5,0 h -1.997621 c -7.27e-4,0 -0.0015,-6.7e-4 -0.0022,0 z"
     style="color:#3daee9;opacity:0.1;fill:#006a80;fill-opacity:1;fill-rule:nonzero;stroke:none"
     inkscape:connector-curvature="0" />
  <path
     class="ColorScheme-ViewFocus"
     style="color:#3daee9;opacity:0.1;fill:#006a80;fill-opacity:1;fill-rule:nonzero;stroke:none"
     d="m 17.742629,5.8410696 v 2.000047 h 1.999722 v -2.000047 c -7.45e-4,-6.7e-4 8.18e-4,0 5.5e-5,0 h -1.997621 c -7.27e-4,0 -0.0015,-6.7e-4 -0.0022,0 z"
     id="pressed-topright"
     inkscape:connector-curvature="0" />
  <path
     class="ColorScheme-ViewFocus"
     id="pressed-bottomright"
     d="m 17.742629,18.841055 v 2.000047 h 1.999722 v -2.000047 c -7.45e-4,-6.7e-4 8.18e-4,0 5.5e-5,0 h -1.997621 c -7.27e-4,0 -0.0015,-6.7e-4 -0.0022,0 z"
     style="color:#3daee9;opacity:0.1;fill:#006a80;fill-opacity:1;fill-rule:nonzero;stroke:none"
     inkscape:connector-curvature="0" />
  <path
     class="ColorScheme-ViewFocus"
     style="color:#3daee9;opacity:0.1;fill:#006a80;fill-opacity:1;fill-rule:nonzero;stroke:none"
     d="m 4.7426292,18.841055 v 2.000047 h 1.999722 v -2.000047 c -7.45e-4,-6.7e-4 8.18e-4,0 5.5e-5,0 h -1.997621 c -7.27e-4,0 -0.0015,-6.7e-4 -0.0022,0 z"
     id="pressed-bottomleft"
     inkscape:connector-curvature="0" />
  <path
     class="ColorScheme-ViewBackground"
     style="color:#fcfcfc;opacity:0.05;fill:#65abab;fill-opacity:1;fill-rule:nonzero;stroke:none"
     d="m 8.7422852,85.841102 v 11 H 19.742284 v -11 z"
     id="section-center"
     inkscape:connector-curvature="0" />
  <path
     class="ColorScheme-ViewBackground"
     style="color:#fcfcfc;opacity:0.05;fill:#65abab;fill-opacity:1;fill-rule:nonzero;stroke:none"
     d="m 19.742285,85.841102 v 11 h 2 c 6.68e-4,-0.0183 0,-0.0344 0,-0.0529 v -10.89423 c 0,-0.0185 6.68e-4,-0.03453 0,-0.05288 h -2 z"
     id="section-right"
     inkscape:connector-curvature="0" />
  <path
     class="ColorScheme-ViewBackground"
     style="color:#fcfcfc;opacity:0.05;fill:#65abab;fill-opacity:1;fill-rule:nonzero;stroke:none"
     d="m 8.7422852,83.841055 v 2.000047 H 19.742284 v -2.000047 c -0.0041,-6.7e-4 0.0042,0 10e-7,0 H 8.7541452 c -0.004,0 -0.008,-6.7e-4 -0.0119,0 z"
     id="section-top"
     inkscape:connector-curvature="0" />
  <path
     class="ColorScheme-ViewBackground"
     style="color:#fcfcfc;opacity:0.05;fill:#65abab;fill-opacity:1;fill-rule:nonzero;stroke:none"
     d="m 6.7425852,85.841102 c -6.7e-4,0.01835 0,0.03439 0,0.05288 v 10.89423 c 0,0.0185 -6.7e-4,0.0345 0,0.0529 h 2 v -11 h -2 z"
     id="section-left"
     inkscape:connector-curvature="0" />
  <path
     class="ColorScheme-ViewBackground"
     style="color:#fcfcfc;opacity:0.05;fill:#65abab;fill-opacity:1;fill-rule:nonzero;stroke:none"
     d="m 8.7422852,96.840762 v 2 H 19.742285 v -1.99966 z"
     id="section-bottom"
     inkscape:connector-curvature="0" />
  <path
     class="ColorScheme-ViewBackground"
     id="section-topleft"
     d="m 6.7422522,83.841055 v 2.000047 h 1.999771 v -2.000047 c -7.46e-4,-6.7e-4 7.63e-4,0 0,0 h -1.997614 c -7.28e-4,0 -0.0015,-6.7e-4 -0.0022,0 z"
     style="color:#fcfcfc;opacity:0.05;fill:#65abab;fill-opacity:1;fill-rule:nonzero;stroke:none"
     inkscape:connector-curvature="0" />
  <path
     class="ColorScheme-ViewBackground"
     id="section-topright"
     d="m 19.742292,83.8414 v 1.999702 h 1.999771 V 83.8414 c -7.46e-4,-6.7e-4 7.63e-4,0 0,0 h -1.997614 c -7.28e-4,0 -0.0015,-6.7e-4 -0.0022,0 z"
     style="color:#fcfcfc;opacity:0.05;fill:#65abab;fill-opacity:1;fill-rule:nonzero;stroke:none"
     inkscape:connector-curvature="0" />
  <path
     class="ColorScheme-ViewBackground"
     style="color:#fcfcfc;opacity:0.05;fill:#65abab;fill-opacity:1;fill-rule:nonzero;stroke:none"
     d="m 19.742292,96.841052 v 1.99971 h 1.999771 v -1.99971 c -7.46e-4,-6.7e-4 7.63e-4,0 0,0 h -1.997614 c -7.28e-4,0 -0.0015,-6.7e-4 -0.0022,0 z"
     id="section-bottomright"
     inkscape:connector-curvature="0" />
  <path
     class="ColorScheme-ViewBackground"
     id="section-bottomleft"
     d="m 6.7422922,96.841052 v 1.99971 h 1.999771 v -1.99971 c -7.46e-4,-6.7e-4 7.63e-4,0 0,0 h -1.997614 c -7.28e-4,0 -0.0015,-6.7e-4 -0.0022,0 z"
     style="color:#fcfcfc;opacity:0.05;fill:#65abab;fill-opacity:1;fill-rule:nonzero;stroke:none"
     inkscape:connector-curvature="0" />
  <rect
     y="79.121994"
     x="13.001035"
     height="6"
     width="2"
     id="section-hint-top-margin"
     style="fill:#006a80;fill-opacity:1;fill-rule:nonzero;stroke:none" />
  <rect
     style="fill:#006a80;fill-opacity:1;fill-rule:nonzero;stroke:none"
     id="section-hint-left-margin"
     width="4"
     height="1.9999999"
     x="3.7649641"
     y="90.313049" />
  <rect
     style="fill:#006a80;fill-opacity:1;fill-rule:nonzero;stroke:none"
     id="section-hint-bottom-margin"
     width="2"
     height="6"
     x="13.439244"
     y="97.616386" />
  <path
     class="ColorScheme-ViewFocus"
     style="color:#3daee9;opacity:0.05;fill:#65abab;fill-opacity:1;fill-rule:nonzero;stroke:none"
     d="M 46.742285,5.2252593 V 16.225265 H 57.742284 V 5.2252593 Z"
     id="hover-center"
     inkscape:connector-curvature="0" />
  <path
     class="ColorScheme-ViewFocus"
     style="color:#3daee9;opacity:0.05;fill:#65abab;fill-opacity:1;fill-rule:nonzero;stroke:none"
     d="M 57.742285,5.2252593 V 16.225265 h 2 c 6.68e-4,-0.01835 0,-0.0344 0,-0.05289 V 5.2781443 c 0,-0.0185 6.68e-4,-0.03453 0,-0.05288 h -2 z"
     id="hover-right"
     inkscape:connector-curvature="0" />
  <path
     class="ColorScheme-ViewFocus"
     style="color:#3daee9;opacity:0.05;fill:#65abab;fill-opacity:1;fill-rule:nonzero;stroke:none"
     d="m 46.742285,3.2252123 v 2.000047 h 10.999999 v -2.000047 c -0.0041,-6.7e-4 0.0045,0 3.01e-4,0 h -10.98844 c -0.004,0 -0.008,-6.7e-4 -0.0119,0 z"
     id="hover-top"
     inkscape:connector-curvature="0" />
  <path
     class="ColorScheme-ViewFocus"
     style="color:#3daee9;opacity:0.05;fill:#65abab;fill-opacity:1;fill-rule:nonzero;stroke:none"
     d="m 44.742585,5.2252593 c -6.7e-4,0.01835 0,0.03439 0,0.05288 V 16.17237 c 0,0.0185 -6.7e-4,0.03453 0,0.05288 h 2 V 5.2252443 h -2 z"
     id="hover-left"
     inkscape:connector-curvature="0" />
  <path
     class="ColorScheme-ViewFocus"
     style="color:#3daee9;opacity:0.05;fill:#65abab;fill-opacity:1;fill-rule:nonzero"
     d="m 46.742585,16.225245 v 2 h 11 v -2 z"
     id="hover-bottom"
     inkscape:connector-curvature="0" />
  <path
     class="ColorScheme-ViewFocus"
     id="hover-topleft"
     d="m 44.742252,3.2252123 v 2.000047 h 1.999722 v -2.000047 c -7.45e-4,-6.7e-4 8.18e-4,0 5.5e-5,0 h -1.997621 c -7.27e-4,0 -0.0015,-6.7e-4 -0.0022,0 z"
     style="color:#3daee9;opacity:0.05;fill:#65abab;fill-opacity:1;fill-rule:nonzero;stroke:none"
     inkscape:connector-curvature="0" />
  <path
     class="ColorScheme-ViewFocus"
     style="color:#3daee9;opacity:0.05;fill:#65abab;fill-opacity:1;fill-rule:nonzero;stroke:none"
     d="m 57.742629,3.2252123 v 2.000047 h 1.999722 v -2.000047 c -7.45e-4,-6.7e-4 8.18e-4,0 5.5e-5,0 h -1.997621 c -7.27e-4,0 -0.0015,-6.7e-4 -0.0022,0 z"
     id="hover-topright"
     inkscape:connector-curvature="0" />
  <path
     class="ColorScheme-ViewFocus"
     id="hover-bottomright"
     d="m 57.742629,16.225198 v 2.000047 h 1.999722 v -2.000047 c -7.45e-4,-6.7e-4 8.18e-4,0 5.5e-5,0 h -1.997621 c -7.27e-4,0 -0.0015,-6.7e-4 -0.0022,0 z"
     style="color:#3daee9;opacity:0.05;fill:#65abab;fill-opacity:1;fill-rule:nonzero;stroke:none"
     inkscape:connector-curvature="0" />
  <path
     class="ColorScheme-ViewFocus"
     style="color:#3daee9;opacity:0.05;fill:#65abab;fill-opacity:1;fill-rule:nonzero;stroke:none"
     d="m 44.742629,16.225198 v 2.000047 h 1.999722 v -2.000047 c -7.45e-4,-6.7e-4 8.18e-4,0 5.5e-5,0 h -1.997621 c -7.27e-4,0 -0.0015,-6.7e-4 -0.0022,0 z"
     id="hover-bottomleft"
     inkscape:connector-curvature="0" />
  <rect
     y="90.03215"
     x="20.359516"
     height="2"
     width="4"
     id="section-hint-right-margin"
     style="fill:#006a80;fill-opacity:1;fill-rule:nonzero;stroke:none" />
</svg>
